<svg xmlns="http://www.w3.org/2000/svg" width="36" height="93" viewBox="0 0 36 93">
    <defs>
        <linearGradient id="a" x1="52.921%" x2="47.08%" y1="1.965%" y2="98.047%">
            <stop offset="0%" stop-color="#FF375C"/>
            <stop offset="100%" stop-color="#FF9857"/>
        </linearGradient>
    </defs>
    <g fill="none" fill-rule="evenodd">
        <path fill="url(#a)" d="M8.753 83.593C-7.568 77.08 3.939 33.946 3.939 33.946l15.637 2.64 15.638 2.64S29.52 84.066 11.433 84.128L9.445 93l-2.63-.754 1.938-8.653zM23.616 9.465c-1.748-1.005-2.74-3.067-2.315-5.232C21.785 1.757 23.95 0 26.34 0c.267 0 .536.022.806.067 2.69.453 4.434 3.05 3.894 5.802-.423 2.164-2.133 3.775-4.153 4.146l-1.573 8.028c3.794 1.47 11.979 5.978 10.51 18.543l-15.288-2.373-.152-.024-15.983-2.684c3.392-12.24 13.534-13.868 17.64-14.011l1.574-8.029z"/>
        <path fill="#FFF" d="M8 30.349S9.884 21.029 21 21c0 0-10.177 4.708-9.127 10L8 30.349z"/>
        <path fill="#FFF" fill-rule="nonzero" d="M4 34.055L35.389 39 36 36.265 4.612 31z"/>
        <path fill="#39C0FE" fill-opacity=".5" d="M33.806 44.335c-9.918-.76-19.79-2.2-29.561-3.989A20.19 20.19 0 0 1 2.734 40C.051 52.31-4.35 80.533 10.731 83.943 26.637 85.465 33.782 56.095 36 44.317c-.683.06-1.404.079-2.194.018" style="mix-blend-mode:multiply"/>
        <path fill="#FFF" d="M31 55c0 8.285-6.715 15-15 15S1 63.285 1 55s6.715-15 15-15 15 6.715 15 15"/>
    </g>
</svg>
